<svg xmlns="http://www.w3.org/2000/svg" width="32" height="32" fill="none"><rect width="32" height="32" fill="#1F2937" rx="4"/><path fill="url(#a)" d="M5 13a1 1 0 0 1 1-1h4a1 1 0 0 1 1 1v14H5V13Z"/><path fill="url(#b)" d="M13 19a1 1 0 0 1 1-1h4a1 1 0 0 1 1 1v8h-6v-8Z"/><path fill="url(#c)" d="M21 7a1 1 0 0 1 1-1h4a1 1 0 0 1 1 1v20h-6V7Z"/><defs><linearGradient id="a" x1="5" x2="27" y1="17" y2="17" gradientUnits="userSpaceOnUse"><stop stop-color="#C084FC"/><stop offset="1" stop-color="#93C5FD"/></linearGradient><linearGradient id="b" x1="5" x2="27" y1="17" y2="17" gradientUnits="userSpaceOnUse"><stop stop-color="#C084FC"/><stop offset="1" stop-color="#93C5FD"/></linearGradient><linearGradient id="c" x1="5" x2="27" y1="17" y2="17" gradientUnits="userSpaceOnUse"><stop stop-color="#C084FC"/><stop offset="1" stop-color="#93C5FD"/></linearGradient></defs></svg>